<svg id="Layer_1" data-name="Layer 1" xmlns="http://www.w3.org/2000/svg" viewBox="0 0 613.1 391"><defs><style>.cls-1{fill:#333;}.cls-2{fill:#0f0f0f;}.cls-3{fill:#aaa;}.cls-4{stroke:#fff;stroke-miterlimit:10;stroke-width:29.8px;}.cls-5{fill:#fff;}.cls-6{fill:#cc333f;}</style></defs><title>camera</title><g id="Layer_1-2" data-name="Layer 1"><path d="M744.8,338.3H663.5v-41a12.76,12.76,0,0,1,12.8-12.8h55.8a12.76,12.76,0,0,1,12.8,12.8l-.1,41Z" transform="translate(-173.4 -284.5)"/><path class="cls-1" d="M761,675.5H199A25.48,25.48,0,0,1,173.5,650V338.8A25.48,25.48,0,0,1,199,313.3H761a25.48,25.48,0,0,1,25.5,25.5V650A25.42,25.42,0,0,1,761,675.5Z" transform="translate(-173.4 -284.5)"/><path class="cls-2" d="M761,632.9H199a25.48,25.48,0,0,1-25.5-25.5V650A25.48,25.48,0,0,0,199,675.5H761A25.48,25.48,0,0,0,786.5,650V607.4A25.42,25.42,0,0,1,761,632.9Z" transform="translate(-173.4 -284.5)"/><rect class="cls-3" y="114.2" width="613.1" height="202.1"/><circle class="cls-4" cx="306.6" cy="210.8" r="110.2"/><circle class="cls-1" cx="306.6" cy="210.8" r="63"/><circle class="cls-5" cx="267.2" cy="171.4" r="23.6"/><circle class="cls-6" cx="60.9" cy="72" r="18.4"/><rect class="cls-3" x="502.1" y="58.3" width="69.4" height="27.6"/></g></svg>